<svg version="1.1" id="amulet" xmlns="http://www.w3.org/2000/svg" x="0" y="0" viewBox="0 0 512 512" style="enable-background:new 0 0 512 512" xml:space="preserve"><path style="fill:#5a482e" d="M390.108 162.66C352.777 194.045 305.15 211.328 256 211.328c-113.974 0-206.7-91.339-206.7-203.61a7.718 7.718 0 1 0-15.437.001c0 58.531 23.12 113.552 65.102 154.929 41.951 41.347 97.721 64.118 157.035 64.118 52.78 0 103.935-18.57 144.042-52.289a7.719 7.719 0 0 0 .941-10.875c-2.744-3.263-7.614-3.686-10.875-.942zM470.418 0a7.718 7.718 0 0 0-7.719 7.719c0 48.078-17.33 94.741-48.796 131.394a7.719 7.719 0 1 0 11.714 10.055c33.867-39.45 52.52-89.684 52.52-141.449A7.718 7.718 0 0 0 470.418 0z"/><path style="fill:#bf953e" d="M278.031 253.609c0 2.919-2.39 5.308-5.309 5.308h-33.443c-2.919 0-5.309-2.389-5.309-5.308v-51.5c0-2.919 2.39-5.308 5.309-5.308h33.443c2.919 0 5.309 2.389 5.309 5.308v51.5z"/><ellipse style="fill:#bf953e" cx="342.894" cy="199.022" rx="24.828" ry="24.469"/><ellipse style="fill:#bf953e" cx="169.106" cy="199.022" rx="24.827" ry="24.469"/><path d="M160.452 199.026c0-10.723 7-19.828 16.739-23.134a25.121 25.121 0 0 0-8.089-1.335c-13.71 0-24.827 10.956-24.827 24.469 0 13.515 11.117 24.47 24.827 24.47 2.833 0 5.553-.474 8.089-1.335-9.739-3.308-16.739-12.413-16.739-23.135z" style="opacity:.1"/><path style="fill:#ffc753" d="M408.213 467.434c-20.024-5.527-23.556-9.06-29.087-29.086a5.81 5.81 0 0 0-5.604-4.266 5.811 5.811 0 0 0-5.605 4.266c-5.528 20.025-9.066 23.558-29.087 29.086a5.817 5.817 0 0 0 0 11.212c20.021 5.529 23.559 9.062 29.087 29.087a5.813 5.813 0 0 0 5.605 4.267 5.812 5.812 0 0 0 5.604-4.267c5.531-20.024 9.062-23.558 29.087-29.087a5.816 5.816 0 0 0 0-11.212zM119.825 344.409c-18.282-5.047-21.507-8.272-26.556-26.556a5.305 5.305 0 0 0-5.116-3.895 5.305 5.305 0 0 0-5.118 3.895c-5.048 18.284-8.277 21.509-26.555 26.556a5.31 5.31 0 0 0 0 10.236c18.278 5.048 21.507 8.273 26.555 26.556a5.308 5.308 0 0 0 10.234 0c5.049-18.283 8.275-21.509 26.556-26.556a5.309 5.309 0 0 0 0-10.236z"/><circle style="fill:#b9f5ed" cx="256" cy="349.32" r="106.538"/><path style="fill:#5ce8d5" d="M296.357 447.938c26.059-10.674 46.948-31.369 57.87-57.297-.006-.025-.012-.042-.012-.042l-98.213-41.281 40.258 98.637c.034-.004.064-.01.097-.017zM354.654 309.04c-10.668-26.104-31.391-47.031-57.361-57.96a.134.134 0 0 1-.012.024L256 349.318l98.637-40.258a.193.193 0 0 0 .017-.02z"/><path style="fill:#5ce8d5" d="m256.001 349.318-40.257-98.637-.009-.019c-26.11 10.668-47.041 31.393-57.971 57.366l.023.009L256 349.319l-98.636 40.257-.018.008c10.667 26.11 31.391 47.042 57.363 57.972l.012-.023 41.28-98.215.001.001v-.001h-.001z"/><path d="M171.384 349.318c0-55.137 41.887-100.493 95.578-105.98a107.527 107.527 0 0 0-10.959-.558c-58.841 0-106.538 47.699-106.538 106.538s47.696 106.539 106.538 106.539c3.7 0 7.357-.189 10.959-.558-53.692-5.488-95.578-50.843-95.578-105.981z" style="opacity:.1"/><path style="fill:#37c4b3" d="M283.728 411.258a6.72 6.72 0 0 1-4.75 1.968l-45.957-.001a6.713 6.713 0 0 1-4.75-1.966l-32.497-32.497a6.71 6.71 0 0 1-1.967-4.749l-.001-45.958c0-1.781.707-3.489 1.968-4.748l32.497-32.496a6.72 6.72 0 0 1 4.75-1.969l45.957.002a6.702 6.702 0 0 1 4.748 1.966l32.499 32.497a6.72 6.72 0 0 1 1.966 4.749v45.958a6.72 6.72 0 0 1-1.966 4.749l-32.497 32.495z"/><path style="fill:#fff" d="M243.497 399.316a7.975 7.975 0 0 1-5.68-2.355l-.179-.179a7.021 7.021 0 0 1 4.966-11.987h24.42c.28 0 .512-.096.711-.294l21.839-21.84a.96.96 0 0 0 .293-.709v-24.14a7.023 7.023 0 0 1 11.97-4.985c.009.009.064.063.072.073a7.975 7.975 0 0 1 2.34 5.665v30.887a8.078 8.078 0 0 1-2.355 5.68l-21.834 21.834a8.085 8.085 0 0 1-5.676 2.351l-30.887-.001z"/></svg>