<svg version="1.1" id="Layer_1" xmlns="http://www.w3.org/2000/svg" x="0" y="0" viewBox="0 0 512 512" style="enable-background:new 0 0 512 512" xml:space="preserve"><path style="fill:#664b33" d="M420.064 442.921H91.937c-38.152 0-69.08 30.929-69.08 69.079h466.287c0-38.152-30.928-69.079-69.08-69.079z"/><path style="fill:#00d8de" d="M256.001 0C131.757 0 31.038 100.719 31.038 224.963v2.841c0 60.13 23.593 116.547 62.024 158.763H418.94c38.432-42.215 62.024-98.633 62.024-158.763v-2.841C480.963 100.719 380.245 0 256.001 0z"/><path style="opacity:.3;fill:#20272e;enable-background:new" d="M256.001 0 256 386.567h162.94c38.432-42.215 62.024-98.633 62.024-158.763v-2.841C480.963 100.719 380.245 0 256.001 0z"/><path style="fill:#fff" d="M397.977 344.788a9.56 9.56 0 0 1-6.147-2.231c-4.07-3.397-4.614-9.45-1.217-13.52 35.215-42.183 47.109-101.216 31.041-154.062A9.598 9.598 0 0 1 428.045 163c5.068-1.542 10.432 1.319 11.975 6.391 17.927 58.968 4.643 124.855-34.671 171.949a9.576 9.576 0 0 1-7.372 3.448zM409.729 137.209a9.591 9.591 0 0 1-8.074-4.395c-14.59-22.61-36.227-41.399-64.309-55.842a9.597 9.597 0 0 1-4.145-12.926c2.426-4.715 8.215-6.569 12.927-4.145 31.113 16.002 55.222 37.032 71.658 62.505 2.874 4.455 1.593 10.396-2.86 13.269a9.566 9.566 0 0 1-5.197 1.534zM306.232 65.41a9.656 9.656 0 0 1-2.192-.253 160.426 160.426 0 0 0-36.446-4.181c-5.302 0-9.598-4.298-9.598-9.598s4.296-9.598 9.598-9.598c13.772 0 27.503 1.575 40.812 4.684 5.161 1.206 8.369 6.368 7.164 11.53-1.034 4.426-4.98 7.416-9.338 7.416z"/><path style="fill:#4d3926" d="M91.937 386.573h328.125v56.349H91.937z"/><path style="opacity:.3;fill:#20272e;enable-background:new" d="M256.001 512h233.143c0-38.152-30.927-69.079-69.079-69.079H256.001V512z"/><path style="opacity:.3;fill:#20272e;enable-background:new" d="M91.937 386.573h164.069v56.349H91.937z"/></svg>