<svg version="1.1" id="Layer_1" xmlns="http://www.w3.org/2000/svg" x="0" y="0" viewBox="0 0 512 512" style="enable-background:new 0 0 512 512" xml:space="preserve"><circle style="fill:#fff082" cx="317.793" cy="229.517" r="61.793"/><circle style="fill:#fff8c1" cx="317.793" cy="229.517" r="35.31"/><path style="fill:#7f8499" d="m493.084 441.379-152.58-194.194c-7.069-8.996-20.696-8.996-27.765 0l-152.58 194.194h332.925z"/><path style="fill:#e4eaf8" d="m286.897 348.69 42.31-42.31a8.827 8.827 0 0 1 12.483 0l5.172 5.172a8.827 8.827 0 0 0 12.483 0l17.769-17.769-36.611-46.596c-7.069-8.996-20.696-8.996-27.765 0l-47.317 60.222 21.476 41.281z"/><path style="fill:#5b5d6e" d="M503.172 432.552h-104.04L225.745 211.875c-7.069-8.996-20.696-8.996-27.765 0L29.892 425.804a17.655 17.655 0 0 1-13.882 6.748H8.828A8.822 8.822 0 0 0 0 441.379a8.823 8.823 0 0 0 8.828 8.828h494.345a8.823 8.823 0 0 0 8.828-8.828 8.824 8.824 0 0 0-8.829-8.827z"/><path style="fill:#707487" d="M170.933 432.552h228.2L227.654 214.305l-65.14 206.766c-1.792 5.689 2.455 11.481 8.419 11.481z"/><path style="fill:#d5dced" d="M172.896 305.309c6.894 6.895 18.073 6.895 24.968 0l19.17-19.17c6.894-6.894 18.073-6.894 24.968 0l1.515 1.515c6.894 6.895 18.073 6.895 24.968 0l9.408-9.408-52.148-66.369c-7.069-8.996-20.696-8.996-27.765 0l-52.148 66.369 27.064 27.063z"/><path style="fill:#e4eaf8" d="M243.517 287.654c6.894 6.895 18.073 6.895 24.968 0l9.408-9.408-50.239-63.94-28.154 89.368 17.535-17.534c6.894-6.894 18.073-6.894 24.968 0l1.514 1.514z"/><path style="fill:#fff082" d="M317.793 141.241a8.826 8.826 0 0 1-8.828-8.828V70.621a8.826 8.826 0 0 1 8.828-8.828 8.826 8.826 0 0 1 8.828 8.828v61.793a8.825 8.825 0 0 1-8.828 8.827zM476.69 238.345h-61.793c-4.879 0-8.828-3.953-8.828-8.828s3.948-8.828 8.828-8.828h61.793c4.879 0 8.828 3.953 8.828 8.828s-3.949 8.828-8.828 8.828z"/><path style="fill:#fff8c1" d="M366.336 154.25c-1.5 0-3.017-.38-4.405-1.181-4.224-2.44-5.673-7.837-3.233-12.061l22.069-38.225c2.44-4.224 7.844-5.668 12.061-3.233 4.224 2.44 5.673 7.837 3.233 12.061l-22.069 38.225a8.83 8.83 0 0 1-7.656 4.414zM401.897 189.793a8.83 8.83 0 0 1-7.656-4.414c-2.44-4.224-.991-9.621 3.233-12.061l38.225-22.069c4.207-2.44 9.612-.995 12.061 3.233 2.44 4.224.991 9.621-3.233 12.061l-38.225 22.069a8.778 8.778 0 0 1-4.405 1.181zM269.25 154.25a8.83 8.83 0 0 1-7.656-4.414l-22.069-38.225c-2.44-4.224-.991-9.621 3.233-12.061 4.207-2.435 9.612-.991 12.061 3.233l22.069 38.225c2.44 4.224.991 9.621-3.233 12.061a8.786 8.786 0 0 1-4.405 1.181zM440.104 308.966c-1.5 0-3.017-.38-4.405-1.181l-38.225-22.069c-4.224-2.44-5.673-7.837-3.233-12.061 2.44-4.228 7.837-5.677 12.061-3.233l38.225 22.069c4.224 2.44 5.673 7.837 3.233 12.061a8.834 8.834 0 0 1-7.656 4.414zM233.689 189.793c-1.5 0-3.017-.38-4.405-1.181l-38.225-22.069c-4.224-2.44-5.673-7.837-3.233-12.061 2.44-4.228 7.844-5.673 12.061-3.233l38.225 22.069c4.224 2.44 5.673 7.837 3.233 12.061a8.83 8.83 0 0 1-7.656 4.414z"/></svg>