<?xml version="1.0" encoding="iso-8859-1"?>
<!-- Generator: Adobe Illustrator 19.0.0, SVG Export Plug-In . SVG Version: 6.00 Build 0)  -->
<svg version="1.1" id="Layer_1" xmlns="http://www.w3.org/2000/svg" xmlns:xlink="http://www.w3.org/1999/xlink" x="0px" y="0px"
	 viewBox="0 0 512 512" style="enable-background:new 0 0 512 512;" xml:space="preserve">
<circle style="fill:#FFF082;" cx="317.793" cy="229.517" r="61.793"/>
<circle style="fill:#FFF8C1;" cx="317.793" cy="229.517" r="35.31"/>
<path style="fill:#7F8499;" d="M493.084,441.379l-152.58-194.194c-7.069-8.996-20.696-8.996-27.765,0l-152.58,194.194H493.084z"/>
<path style="fill:#E4EAF8;" d="M286.897,348.69l42.31-42.31c3.447-3.447,9.036-3.447,12.483,0l5.172,5.172
	c3.447,3.447,9.036,3.447,12.483,0l17.769-17.769l-36.611-46.596c-7.069-8.996-20.696-8.996-27.765,0l-47.317,60.222L286.897,348.69
	z"/>
<path style="fill:#5B5D6E;" d="M503.172,432.552h-104.04L225.745,211.875c-7.069-8.996-20.696-8.996-27.765,0L29.892,425.804
	c-3.347,4.26-8.465,6.748-13.882,6.748H8.828C3.948,432.552,0,436.5,0,441.379c0,4.879,3.948,8.828,8.828,8.828h494.345
	c4.879,0,8.828-3.948,8.828-8.828C512,436.5,508.052,432.552,503.172,432.552z"/>
<path style="fill:#707487;" d="M170.933,432.552h228.2L227.654,214.305l-65.14,206.766
	C160.722,426.76,164.969,432.552,170.933,432.552z"/>
<path style="fill:#D5DCED;" d="M172.896,305.309c6.894,6.895,18.073,6.895,24.968,0l19.17-19.17c6.894-6.894,18.073-6.894,24.968,0
	l1.515,1.515c6.894,6.895,18.073,6.895,24.968,0l9.408-9.408l-52.148-66.369c-7.069-8.996-20.696-8.996-27.765,0l-52.148,66.369
	L172.896,305.309z"/>
<path style="fill:#E4EAF8;" d="M243.517,287.654c6.894,6.895,18.073,6.895,24.968,0l9.408-9.408l-50.239-63.94l-28.154,89.368
	l17.535-17.534c6.894-6.894,18.073-6.894,24.968,0L243.517,287.654z"/>
<g>
	<path style="fill:#FFF082;" d="M317.793,141.241c-4.879,0-8.828-3.953-8.828-8.828V70.621c0-4.875,3.948-8.828,8.828-8.828
		c4.879,0,8.828,3.953,8.828,8.828v61.793C326.621,137.289,322.673,141.241,317.793,141.241z"/>
	<path style="fill:#FFF082;" d="M476.69,238.345h-61.793c-4.879,0-8.828-3.953-8.828-8.828s3.948-8.828,8.828-8.828h61.793
		c4.879,0,8.828,3.953,8.828,8.828S481.569,238.345,476.69,238.345z"/>
</g>
<g>
	<path style="fill:#FFF8C1;" d="M366.336,154.25c-1.5,0-3.017-0.38-4.405-1.181c-4.224-2.44-5.673-7.837-3.233-12.061l22.069-38.225
		c2.44-4.224,7.844-5.668,12.061-3.233c4.224,2.44,5.673,7.837,3.233,12.061l-22.069,38.225
		C372.353,152.668,369.388,154.25,366.336,154.25z"/>
	<path style="fill:#FFF8C1;" d="M401.897,189.793c-3.052,0-6.017-1.582-7.656-4.414c-2.44-4.224-0.991-9.621,3.233-12.061
		l38.225-22.069c4.207-2.44,9.612-0.995,12.061,3.233c2.44,4.224,0.991,9.621-3.233,12.061l-38.225,22.069
		C404.914,189.414,403.396,189.793,401.897,189.793z"/>
	<path style="fill:#FFF8C1;" d="M269.25,154.25c-3.052,0-6.017-1.582-7.656-4.414l-22.069-38.225
		c-2.44-4.224-0.991-9.621,3.233-12.061c4.207-2.435,9.612-0.991,12.061,3.233l22.069,38.225c2.44,4.224,0.991,9.621-3.233,12.061
		C272.267,153.87,270.75,154.25,269.25,154.25z"/>
	<path style="fill:#FFF8C1;" d="M440.104,308.966c-1.5,0-3.017-0.38-4.405-1.181l-38.225-22.069
		c-4.224-2.44-5.673-7.837-3.233-12.061c2.44-4.228,7.837-5.677,12.061-3.233l38.225,22.069c4.224,2.44,5.673,7.837,3.233,12.061
		C446.121,307.383,443.155,308.966,440.104,308.966z"/>
	<path style="fill:#FFF8C1;" d="M233.689,189.793c-1.5,0-3.017-0.38-4.405-1.181l-38.225-22.069
		c-4.224-2.44-5.673-7.837-3.233-12.061c2.44-4.228,7.844-5.673,12.061-3.233l38.225,22.069c4.224,2.44,5.673,7.837,3.233,12.061
		C239.706,188.211,236.742,189.793,233.689,189.793z"/>
</g>
<g>
</g>
<g>
</g>
<g>
</g>
<g>
</g>
<g>
</g>
<g>
</g>
<g>
</g>
<g>
</g>
<g>
</g>
<g>
</g>
<g>
</g>
<g>
</g>
<g>
</g>
<g>
</g>
<g>
</g>
</svg>
