<svg id="Capa_1" xmlns="http://www.w3.org/2000/svg"><defs><style>.f{fill:#eab84b}.g{fill:#8c8c8c}.h{fill:#cecece}.i{fill:#dfdfdf}.j{fill:#41a08e}.k{fill:#349381}.l{fill:#365650}.m{fill:#6e6e6e}.n{fill:#575757}.o{fill:#75bbad}</style></defs><g id="c"><path class="i" d="m488 192-3.646-14.581a31.087 31.087 0 0 0-21.618-22.352L424 144v-32h-32v32l-38.736 11.067a31.087 31.087 0 0 0-21.618 22.352L328 192l24 31.2V296h112v-72.8l24-31.2Z"/><path class="j" d="m328 192 3.646-14.581a31.087 31.087 0 0 1 21.618-22.352L392 144c5.777 14.443 26.223 14.443 32 0l38.736 11.067a31.087 31.087 0 0 1 21.618 22.352L488 192l-24 31.2V296H352v-72.8L328 192Z"/><path class="k" d="m438.024 204.518 13.211-18.165-6.47-4.706-13.177 18.118 6.436 4.753z"/><path class="i" d="m224 360 10.667 128h42.667L288 360h-64z"/><path class="f" d="M308.395 71.382 304 56c0-17.673-14.327-32-32-32h-26.9a32 32 0 0 0-29.412 19.395 123.57 123.57 0 0 0-7.049 75.482l7.738 34.802.858 3.988h84.537l2.539-6.445a123.57 123.57 0 0 0 4.084-79.84Z"/><path class="i" d="m224 72 2.343 11.716A69.637 69.637 0 0 0 256 128l.283-.142a69.637 69.637 0 0 0 37.547-50.836L296 64l-32-16-40 24Z"/><path class="i" d="M316.25 181.247a40 40 0 0 0-24.368-29.294L272 144v-40h-32v40l-19.882 7.953a40 40 0 0 0-24.368 29.294L192 200l48.175 75.703c3.452 5.426 9.947 7.71 15.82 6.094l.003.006c5.874 1.62 12.373-.672 15.827-6.1L320 200l-3.75-18.753Z"/><path class="h" d="M256 132c-.776 0-1.55-.226-2.219-.672a73.664 73.664 0 0 1-13.617-11.71l5.918-5.383a65.708 65.708 0 0 0 10.218 9.108 65.742 65.742 0 0 0 10.419-6.98l5.068 6.189a73.734 73.734 0 0 1-13.715 8.885l-.283.141A4.002 4.002 0 0 1 256 132Z"/><path d="M195.75 181.247a40 40 0 0 1 24.368-29.294L240 144l16 56 16-56 19.882 7.953a40 40 0 0 1 24.368 29.294L320 200l-16 25.143V272h-96v-47.164l-.055.22L192 200l3.75-18.753Z" style="fill:#f4c762"/><path class="f" d="m235.879 225.03 8.236-2.068-16.787-25.181-6.656 4.438 15.207 22.811z"/><path class="i" d="m184 200-5.113-20.45a24 24 0 0 0-13.83-16.24L120 144v-22.568H88V144l-45.058 19.31a24 24 0 0 0-13.83 16.24L24 200l15.882 22.941L48 296h112l8.118-73.059L184 200Z"/><path class="j" d="m184 200-5.113-20.45a24 24 0 0 0-13.83-16.24L120 144l-16 16-16-16-45.058 19.31a24 24 0 0 0-13.83 16.24L24 200l15.882 22.941L48 296h112l8.118-73.059L184 200Z"/><path class="i" d="M140.113 84.79 135.3 51.113 75.235 56l-5.53 27.473c-3.306 16.532 5.652 33.07 21.306 39.331a34.975 34.975 0 0 0 25.978 0l1.49-.596c14.978-5.991 23.915-21.449 21.634-37.418Z"/><path class="f" d="M104 24c-17.673 0-32 14.327-32 32v16l48.622-9.724C138.867 58.626 152 42.606 152 24h-48Z"/><path class="o" d="M96 188h16v8H96zM96 220h16v8H96z"/><path class="g" d="m48 296 16 192h80l16-192H48z"/><path class="m" d="M100 320h8v168h-8z"/><path class="g" d="M304 272h-96a117.61 117.61 0 0 0-2.376 80.87L208 360h96l2.376-7.13A117.61 117.61 0 0 0 304 272Z"/><path class="i" d="m368 64 6.66 39.963a15.999 15.999 0 0 0 8.628 11.68L408 128l25.001-12.5a16 16 0 0 0 8.534-11.173L448 72l-80-8Z"/><path class="f" d="m448 72-80-8-2.148-6.444a24.228 24.228 0 0 1 28.24-31.313L456 40l-8 32Z"/><path class="g" d="M352 296h112v192H352z"/><path class="m" d="M404 328h8v160h-8z"/><path class="n" d="M436 456c-15.464 0-28 12.536-28 28v4h56v-4c0-15.464-12.536-28-28-28Z"/><path class="o" d="m104 160 24 16 20-20-28-12-16 16zM88 144l-28 12 20 20 24-16-16-16z"/><path class="i" d="M114.123 244.082 96.31 268.573a16.535 16.535 0 0 0 1.68 21.418c7.295 7.294 19.415 6.201 25.287-2.28l17.776-25.676-26.93-17.953Z"/><path class="k" d="m117.454 246.302-6.693-4.464 38.004-52.191 6.47 4.706-37.781 51.949zM144.381 264.254l22.615-32.666-6.578-4.553-22.694 32.781 6.657 4.438zM90.546 246.302l-37.781-51.949 6.47-4.706 37.972 52.211-6.661 4.444zM63.666 264.323l-22.629-32.685 6.578-4.555 22.662 32.733-6.611 4.507z"/><path class="i" d="m93.877 244.082-26.93 17.953 17.776 25.675c5.872 8.482 17.992 9.575 25.286 2.28a16.535 16.535 0 0 0 1.68-21.417l-17.812-24.491Z"/><path class="h" d="M97.696 294.978a20.681 20.681 0 0 1-2.534-2.16c-7.19-7.19-8.067-18.375-2.086-26.597l7.689-10.574 6.47 4.706-7.69 10.573a12.475 12.475 0 0 0 1.273 16.236c.487.485 1.01.933 1.558 1.327l-4.68 6.489ZM116.992 118.494l-1.488.597a30.855 30.855 0 0 1-24.138-.479l-3.27 7.301A38.943 38.943 0 0 0 104 129.318c4.904 0 9.81-.933 14.478-2.8l1.49-.596-2.975-7.428Z"/><path class="i" d="M264.085 260.128 240 224l-28.235 7.059 28.41 44.644c4.294 6.749 13.297 8.65 19.952 4.212 6.558-4.372 8.33-13.23 3.958-19.787Z"/><path class="i" d="m272 224-24.085 36.128c-4.371 6.557-2.6 15.415 3.957 19.787 6.656 4.437 15.659 2.537 19.953-4.212l28.41-44.644L272 224Z"/><path class="h" d="m265.2 280.895-5.681-5.633c3.412-3.442 3.932-8.873 1.238-12.915l-6.598-9.898 6.656-4.437 6.598 9.897c4.793 7.19 3.862 16.857-2.213 22.986ZM252 360h8v128h-8z"/><path class="n" d="M380 456c-15.464 0-28 12.536-28 28v4h56v-4c0-15.464-12.536-28-28-28ZM84 456c-11.046 0-20 8.954-20 20v12h40v-12c0-11.046-8.954-20-20-20ZM124 456c-11.046 0-20 8.954-20 20v12h40v-12c0-11.046-8.954-20-20-20ZM240 456c-8.836 0-16 7.163-16 16v16h32v-16c0-8.837-7.164-16-16-16ZM272 456c-8.836 0-16 7.163-16 16v16h32v-16c0-8.837-7.164-16-16-16Z"/><path class="i" d="m434.824 202.118-42.266 58.115a17.026 17.026 0 0 0 1.73 22.055c7.268 7.268 19.269 6.488 25.535-1.659l43.787-56.922-28.786-21.59Z"/><path class="i" d="m423.442 260.233-42.266-58.115-28.786 21.59 43.787 56.921c6.266 8.147 18.267 8.927 25.535 1.659a17.026 17.026 0 0 0 1.73-22.055Z"/><path class="h" d="m393.484 268.057-7.886-1.34a21.113 21.113 0 0 1 3.724-8.836l14.715-20.234 6.47 4.706-14.714 20.233a12.895 12.895 0 0 0-2.309 5.47Z"/><path class="f" d="m276.121 225.03-8.236-2.068 16.787-25.181 6.656 4.438-15.207 22.811z"/><path class="k" d="m377.976 204.518-13.211-18.165 6.47-4.706 13.177 18.118-6.436 4.753z"/><path class="l" d="M96 188h16v8H96zM96 220h16v8H96zM491.88 191.03l-3.645-14.58c-3.032-12.129-12.38-21.795-24.4-25.228L428 140.982v-18.509l6.79-3.395c5.56-2.78 9.447-7.871 10.667-13.968l6.443-32.218 7.98-31.922a3.998 3.998 0 0 0-3.012-4.874L394.96 22.339c-7.472-1.662-15.414-.178-21.781 4.068-10.563 7.042-15.136 20.37-11.122 32.413l2.05 6.15 6.608 39.651a20.065 20.065 0 0 0 10.783 14.6l6.502 3.252v18.51l-35.835 10.239c-12.02 3.433-21.368 13.1-24.4 25.227l-3.646 14.581a4.002 4.002 0 0 0 .71 3.408L348 224.561V488a4 4 0 0 0 4 4h112a4 4 0 0 0 4-4V224.56l23.17-30.122a4.003 4.003 0 0 0 .71-3.409ZM377.617 33.062a20.328 20.328 0 0 1 15.609-2.916l57.898 12.867-6.165 24.662-73.982-7.399-1.33-3.986c-2.876-8.63.4-18.182 7.97-23.228Zm.99 70.243L372.804 68.5l70.408 7.04-5.6 28a11.927 11.927 0 0 1-6.401 8.38L408 123.529l-22.924-11.463a12.036 12.036 0 0 1-6.47-8.76Zm27.605 28.272a4.003 4.003 0 0 0 3.578 0L420 126.473v16.68c-2.572 5.639-7.826 7.68-12 7.68s-9.428-2.041-12-7.68v-16.68l10.21 5.105ZM403.054 239l-13.732 18.88a21.271 21.271 0 0 0-2.363 4.207l-28.93-37.609 22.3-16.725L403.054 239Zm32.617-31.247 22.3 16.725-41.319 53.713a13.028 13.028 0 0 1-9.48 5.057 13.048 13.048 0 0 1-10.056-3.788 12.967 12.967 0 0 1-1.323-16.874l39.878-54.833ZM356 484c0-13.233 10.767-24 24-24s24 10.767 24 24h-48Zm56 0c0-13.233 10.767-24 24-24s24 10.767 24 24h-48Zm24-32c-9.55 0-18.132 4.211-24 10.868V328h-8v134.868C398.132 456.211 389.55 452 380 452s-18.132 4.211-24 10.868V300h104v162.868C454.132 456.211 445.55 452 436 452Zm24-160H356v-57.04l29.51 38.363a20.985 20.985 0 0 0 5.95 11.793 21.025 21.025 0 0 0 31.534-2.048L460 234.961V292Zm2.849-73.864-22.472-16.854 10.858-14.93-6.47-4.705L408 232.2l-36.765-50.552-6.47 4.706 10.858 14.93-22.472 16.853-20.801-27.042 3.176-12.705c2.34-9.362 9.558-16.825 18.836-19.476l35.561-10.16c3.81 6.292 10.453 10.08 18.077 10.08s14.268-3.788 18.077-10.08l35.56 10.16c9.279 2.651 16.497 10.114 18.837 19.476l3.176 12.705-20.801 27.042ZM320.17 180.463a43.853 43.853 0 0 0-13.625-23.999l1.48-3.757c10.445-26.111 11.942-55.384 4.215-82.424l-4.245-14.86C307.687 35.839 291.658 20 272 20h-26.9a35.958 35.958 0 0 0-33.088 21.818c-10.596 24.722-13.113 51.668-7.277 77.927l7.1 31.932c-10.294 6.347-17.585 16.673-20.006 28.786l-3.75 18.753a3.995 3.995 0 0 0 .546 2.931L204 226.308v44.946c-10.392 26.48-11.171 55.879-2.172 82.88l2.377 7.13A4 4 0 0 0 208 364h12.32l7.67 92.045C223.15 459.7 220 465.481 220 472v16a4 4 0 0 0 4 4h64a4 4 0 0 0 4-4v-16c0-6.52-3.149-12.301-7.99-15.955L291.68 364H304a4 4 0 0 0 3.795-2.735l2.377-7.13c9-27.002 8.22-56.401-2.172-82.881v-44.946l15.375-24.16c.554-.87.75-1.921.547-2.932l-3.751-18.753ZM219.366 44.97A27.968 27.968 0 0 1 245.101 28H272c15.44 0 28 12.56 28 28 0 .372.052.741.154 1.099l4.395 15.381c7.241 25.345 5.838 52.782-3.96 77.276l-.693 1.762a44.296 44.296 0 0 0-6.529-3.279L276 141.292v-22.499c11.363-10.882 19.136-25.281 21.775-41.114l2.17-13.022a4 4 0 0 0-2.156-4.235l-32-16a3.996 3.996 0 0 0-3.847.148l-40 24a3.997 3.997 0 0 0-1.864 4.214l2.343 11.716c2.226 11.136 6.893 21.376 13.579 30.15v26.642l-16.787 6.715-6.67-29.998c-5.468-24.612-3.11-49.867 6.822-73.04ZM268 143.44l-12 41.998-12-41.998v-19.915a74.496 74.496 0 0 0 9.781 7.802 3.995 3.995 0 0 0 4.008.25l.283-.141a73.123 73.123 0 0 0 9.928-6.002v18.006Zm-11.701-20.098c-13.54-9.72-22.748-23.986-26.034-40.411l-1.79-8.952 35.7-21.42 27.393 13.697-1.683 10.107c-3.33 19.975-15.822 37.392-33.586 46.979Zm4.458 139.004c3.14 4.71 1.863 11.1-2.848 14.24a10.178 10.178 0 0 1-7.817 1.503 10.184 10.184 0 0 1-6.542-4.534l-25.43-39.963 20.115-5.029 22.522 33.783Zm13.007-33.783 20.117 5.03-23.616 37.11c.666-4.485-.318-8.995-2.852-12.795l-6.606-9.91 12.957-19.435ZM230.531 268H212v-29.12L230.531 268Zm-2.184 96H252v92.038c-3.347-2.523-7.495-4.038-12-4.038-1.47 0-2.899.17-4.28.472L228.347 364ZM228 472c0-6.617 5.383-12 12-12s12 5.383 12 12v12h-24v-12Zm56 12h-24v-12c0-6.617 5.383-12 12-12s12 5.383 12 12v12Zm-7.72-31.528A19.972 19.972 0 0 0 272 452c-4.505 0-8.653 1.515-12 4.038V364h23.653l-7.374 88.472Zm26.302-100.867L301.117 356h-90.234l-1.465-4.395c-8.203-24.609-7.688-51.344 1.354-75.605h24.85l1.178 1.85a18.134 18.134 0 0 0 11.64 8.068c1.27.269 2.55.4 3.817.4 1.267 0 2.523-.138 3.754-.4a18.4 18.4 0 0 0 3.829.41c6.126 0 11.932-3.09 15.36-8.477l1.178-1.851h24.85c9.042 24.26 9.557 50.996 1.354 75.605ZM300 268h-18.531L300 238.88V268Zm-1.591-41.521-19.932-4.983 12.851-19.277-6.656-4.438L256 240.79l-28.672-43.008-6.656 4.438 12.851 19.277-19.931 4.983-17.355-27.271 3.436-17.177c2.394-11.973 10.593-21.83 21.93-26.364l15.769-6.308 14.782 51.74a3.999 3.999 0 0 0 7.692 0l14.782-51.74 15.768 6.308c11.338 4.534 19.537 14.39 21.931 26.364l3.436 17.178-17.354 27.27Z"/><path class="l" d="M182.769 178.578c-2.11-8.437-8.142-15.52-16.135-18.944L124 141.362V124.03a38.858 38.858 0 0 0 20.073-39.804l-3.852-26.966C149.923 49.28 156 37.206 156 24a4 4 0 0 0-4-4h-48c-19.85 0-36 16.15-36 36v15.606L65.783 82.69C62.51 99.062 70.04 115.437 84 123.776v17.586l-42.633 18.272c-7.994 3.425-14.025 10.507-16.136 18.945L20.12 199.03a3.999 3.999 0 0 0 .592 3.246l15.308 22.112 7.999 71.995 15.996 191.949.02-.002c.17 2.052 1.87 3.67 3.966 3.67h80c2.096 0 3.796-1.618 3.967-3.67l.02.002 15.995-191.95 7.999-71.994 15.308-22.112c.655-.946.871-2.13.592-3.246l-5.112-20.452Zm-41.775-21.228-13.504 13.503-17.212-11.475 10.635-10.635 20.08 8.607ZM92 127.403a38.847 38.847 0 0 0 12 1.915c4.044 0 8.087-.645 12-1.915v14.94l-12 12-12-12v-14.94ZM76 56c0-15.44 12.56-28 28-28h43.77c-1.72 14.912-12.937 27.354-27.933 30.354L76 67.12V56Zm-2.373 28.258 1.772-8.86 46.006-9.2a42.715 42.715 0 0 0 11.433-4.048l3.315 23.205a30.894 30.894 0 0 1-19.16 33.14l-1.49.596a30.85 30.85 0 0 1-23.007 0c-13.86-5.545-21.796-20.195-18.869-34.833Zm13.46 64.485 10.635 10.635-17.212 11.475-13.504-13.503 20.081-8.607Zm11.967 109.258-5.978 8.22c-5.08 6.984-5.194 16.098-.713 23.092a12.478 12.478 0 0 1-4.351-3.878l-15.459-22.33 20.348-13.565 6.153 8.46Zm16.045-8.46 20.348 13.564-15.459 22.329a12.5 12.5 0 0 1-9.18 5.35 12.518 12.518 0 0 1-9.99-3.622 12.475 12.475 0 0 1-1.272-16.236l15.553-21.385ZM124 452c-6.142 0-11.75 2.322-16 6.13V320h-8v138.13c-4.25-3.808-9.858-6.13-16-6.13-7.316 0-13.874 3.295-18.28 8.474L52.347 300h103.306L142.28 460.474C137.874 455.294 131.316 452 124 452ZM81.434 289.988A20.44 20.44 0 0 0 83.022 292H51.58l-5.973-53.762 35.827 51.75ZM68 476c0-8.822 7.178-16 16-16s16 7.178 16 16v8H68v-8Zm72 8h-32v-8c0-8.822 7.178-16 16-16s16 7.178 16 16v8Zm16.42-192h-31.448a20.644 20.644 0 0 0 1.594-2.013l35.827-51.75L156.42 292ZM140 256.527l-20.192-13.462 35.427-48.712-6.47-4.706L104 251.2l-44.765-61.552-6.47 4.706 35.427 48.712L68 256.527 28.32 199.213l4.673-18.693c1.507-6.028 5.816-11.086 11.526-13.533l14.568-6.243 18.085 18.084A3.992 3.992 0 0 0 80 180a3.99 3.99 0 0 0 2.218-.672L104 164.808l21.781 14.52A3.99 3.99 0 0 0 128 180a3.992 3.992 0 0 0 2.83-1.172l18.084-18.085 14.57 6.244c5.708 2.447 10.017 7.505 11.524 13.532l4.673 18.694L140 256.527Z"/></g></svg>